<mxfile host="Electron" modified="2023-11-12T10:54:16.887Z" agent="Mozilla/5.0 (Windows NT 10.0; Win64; x64) AppleWebKit/537.36 (KHTML, like Gecko) draw.io/22.0.3 Chrome/114.0.5735.289 Electron/25.8.4 Safari/537.36" etag="k-fkl4i2Lg2ATBSV7LOz" version="22.0.3" type="device">
  <diagram name="Page-1" id="58cdce13-f638-feb5-8d6f-7d28b1aa9fa0">
    <mxGraphModel dx="1029" dy="625" grid="1" gridSize="10" guides="1" tooltips="1" connect="1" arrows="1" fold="1" page="1" pageScale="1" pageWidth="1100" pageHeight="850" background="none" math="0" shadow="0">
      <root>
        <mxCell id="0" />
        <mxCell id="1" parent="0" />
        <mxCell id="2a3bc250acf0617d-8" value="Mx* Compiler" style="shape=umlFrame;whiteSpace=wrap;html=1;rounded=1;shadow=0;comic=0;labelBackgroundColor=none;strokeWidth=1;fontFamily=Verdana;fontSize=18;align=center;fillColor=#182E3E;strokeColor=#FFFFFF;fontColor=#FFFFFF;width=170;height=40;movable=1;resizable=1;rotatable=1;deletable=1;editable=1;locked=0;connectable=1;" parent="1" vertex="1">
          <mxGeometry x="70" y="90" width="760" height="600" as="geometry" />
        </mxCell>
        <mxCell id="RXooIyX6d2-tUcmmeUrm-88" value="&amp;nbsp; &amp;nbsp; &amp;nbsp; Backend" style="swimlane;strokeColor=#FFFFFF;fontFamily=Helvetica;fontSize=11;fontColor=default;fillColor=none;dashed=1;dashPattern=8 8;opacity=20;rounded=1;arcSize=28;swimlaneLine=0;textOpacity=50;container=0;align=left;verticalAlign=middle;html=1;whiteSpace=wrap;movable=1;resizable=1;rotatable=1;deletable=1;editable=1;locked=0;connectable=1;" vertex="1" parent="1">
          <mxGeometry x="250" y="410" width="540" height="220" as="geometry">
            <mxRectangle x="210" y="325" width="90" height="30" as="alternateBounds" />
          </mxGeometry>
        </mxCell>
        <mxCell id="RXooIyX6d2-tUcmmeUrm-104" style="edgeStyle=none;shape=flexArrow;rounded=0;orthogonalLoop=1;jettySize=auto;html=1;labelBackgroundColor=default;strokeColor=#23445D;strokeWidth=5;align=center;verticalAlign=middle;fontFamily=Helvetica;fontSize=11;fontColor=default;endArrow=classic;" edge="1" parent="1" source="RXooIyX6d2-tUcmmeUrm-109">
          <mxGeometry relative="1" as="geometry">
            <mxPoint x="620" y="506.25" as="sourcePoint" />
            <mxPoint x="228" y="610" as="targetPoint" />
            <Array as="points">
              <mxPoint x="620" y="610" />
            </Array>
          </mxGeometry>
        </mxCell>
        <mxCell id="RXooIyX6d2-tUcmmeUrm-93" style="edgeStyle=none;shape=flexArrow;rounded=0;orthogonalLoop=1;jettySize=auto;html=1;labelBackgroundColor=default;strokeColor=#23445D;strokeWidth=5;align=center;verticalAlign=middle;fontFamily=Helvetica;fontSize=11;fontColor=default;endArrow=classic;fillColor=#36688F;fillStyle=auto;gradientColor=none;" edge="1" parent="1" source="RXooIyX6d2-tUcmmeUrm-108">
          <mxGeometry relative="1" as="geometry">
            <mxPoint x="420" y="506.25" as="sourcePoint" />
            <mxPoint x="228" y="557.5" as="targetPoint" />
            <Array as="points">
              <mxPoint x="420" y="558" />
            </Array>
          </mxGeometry>
        </mxCell>
        <mxCell id="RXooIyX6d2-tUcmmeUrm-59" value="" style="shape=flexArrow;endArrow=classic;html=1;rounded=0;labelBackgroundColor=default;strokeColor=#23445D;strokeWidth=5;align=center;verticalAlign=middle;fontFamily=Helvetica;fontSize=11;fontColor=default;fillColor=#36688F;fillStyle=auto;gradientColor=none;" edge="1" parent="1" source="RXooIyX6d2-tUcmmeUrm-52" target="RXooIyX6d2-tUcmmeUrm-109">
          <mxGeometry width="50" height="50" relative="1" as="geometry">
            <mxPoint x="450" y="250" as="sourcePoint" />
            <mxPoint x="620" y="466.25" as="targetPoint" />
          </mxGeometry>
        </mxCell>
        <mxCell id="RXooIyX6d2-tUcmmeUrm-11" value="" style="shape=flexArrow;endArrow=classic;html=1;rounded=0;labelBackgroundColor=default;strokeColor=#23445D;strokeWidth=5;align=center;verticalAlign=middle;fontFamily=Helvetica;fontSize=11;fontColor=default;fillColor=#36688F;fillStyle=auto;gradientColor=none;" edge="1" parent="1" source="382b91b5511bd0f7-1" target="RXooIyX6d2-tUcmmeUrm-28">
          <mxGeometry width="50" height="50" relative="1" as="geometry">
            <mxPoint x="260" y="330" as="sourcePoint" />
            <mxPoint x="390" y="407.5" as="targetPoint" />
          </mxGeometry>
        </mxCell>
        <mxCell id="RXooIyX6d2-tUcmmeUrm-33" value="" style="group" vertex="1" connectable="0" parent="1">
          <mxGeometry x="178" y="197.5" width="60" height="90" as="geometry" />
        </mxCell>
        <mxCell id="382b91b5511bd0f7-1" value="" style="ellipse;html=1;shape=startState;fillColor=#448DB8;strokeColor=#FFFFFF;rounded=1;shadow=0;comic=0;labelBackgroundColor=none;fontFamily=Verdana;fontSize=12;fontColor=#FFFFFF;align=center;direction=south;" parent="RXooIyX6d2-tUcmmeUrm-33" vertex="1">
          <mxGeometry x="10" y="22.5" width="40" height="40" as="geometry" />
        </mxCell>
        <mxCell id="RXooIyX6d2-tUcmmeUrm-30" value="String" style="text;html=1;strokeColor=none;fillColor=none;align=center;verticalAlign=middle;whiteSpace=wrap;rounded=0;fontColor=#5F99BA;" vertex="1" parent="RXooIyX6d2-tUcmmeUrm-33">
          <mxGeometry width="60" height="30" as="geometry" />
        </mxCell>
        <mxCell id="RXooIyX6d2-tUcmmeUrm-79" value="" style="group" vertex="1" connectable="0" parent="1">
          <mxGeometry x="140" y="330" width="180" height="60" as="geometry" />
        </mxCell>
        <mxCell id="RXooIyX6d2-tUcmmeUrm-76" value="To all&lt;br style=&quot;font-size: 10px;&quot;&gt;modules" style="text;html=1;strokeColor=none;fillColor=none;align=center;verticalAlign=middle;whiteSpace=wrap;rounded=1;fontColor=#677B87;opacity=20;fontSize=10;" vertex="1" parent="RXooIyX6d2-tUcmmeUrm-79">
          <mxGeometry x="140" y="5" width="40" height="30" as="geometry" />
        </mxCell>
        <mxCell id="RXooIyX6d2-tUcmmeUrm-21" value="" style="endArrow=classic;html=1;rounded=0;labelBackgroundColor=default;strokeColor=#556873;strokeWidth=2;align=center;verticalAlign=middle;fontFamily=Helvetica;fontSize=11;fontColor=default;opacity=30;" edge="1" parent="RXooIyX6d2-tUcmmeUrm-79" source="RXooIyX6d2-tUcmmeUrm-47">
          <mxGeometry width="50" height="50" relative="1" as="geometry">
            <mxPoint x="-6.807500000000118" y="19.93999999999994" as="sourcePoint" />
            <mxPoint x="130" as="targetPoint" />
            <Array as="points" />
          </mxGeometry>
        </mxCell>
        <mxCell id="RXooIyX6d2-tUcmmeUrm-47" value="" style="ellipse;html=1;shape=startState;fillColor=#182E3E;strokeColor=#FFFFFF;rounded=1;shadow=0;comic=0;labelBackgroundColor=none;fontFamily=Verdana;fontSize=12;fontColor=#FFFFFF;align=center;direction=south;" vertex="1" parent="RXooIyX6d2-tUcmmeUrm-79">
          <mxGeometry x="48" width="40" height="40" as="geometry" />
        </mxCell>
        <mxCell id="RXooIyX6d2-tUcmmeUrm-57" value="" style="endArrow=classic;html=1;rounded=0;labelBackgroundColor=default;strokeColor=#556873;strokeWidth=2;align=center;verticalAlign=middle;fontFamily=Helvetica;fontSize=11;fontColor=default;opacity=30;entryX=0;entryY=0.5;entryDx=0;entryDy=0;" edge="1" parent="RXooIyX6d2-tUcmmeUrm-79" source="RXooIyX6d2-tUcmmeUrm-47" target="RXooIyX6d2-tUcmmeUrm-76">
          <mxGeometry width="50" height="50" relative="1" as="geometry">
            <mxPoint x="107" y="40" as="sourcePoint" />
            <mxPoint x="110" y="30" as="targetPoint" />
            <Array as="points" />
          </mxGeometry>
        </mxCell>
        <mxCell id="RXooIyX6d2-tUcmmeUrm-72" value="" style="endArrow=classic;html=1;rounded=0;labelBackgroundColor=default;strokeColor=#556873;strokeWidth=2;align=center;verticalAlign=middle;fontFamily=Helvetica;fontSize=11;fontColor=default;opacity=30;" edge="1" parent="RXooIyX6d2-tUcmmeUrm-79" source="RXooIyX6d2-tUcmmeUrm-47">
          <mxGeometry width="50" height="50" relative="1" as="geometry">
            <mxPoint x="90" y="50" as="sourcePoint" />
            <mxPoint x="130" y="40" as="targetPoint" />
            <Array as="points" />
          </mxGeometry>
        </mxCell>
        <mxCell id="RXooIyX6d2-tUcmmeUrm-2" value="Compile&lt;br&gt;Arguments" style="text;html=1;strokeColor=none;fillColor=none;align=center;verticalAlign=middle;whiteSpace=wrap;rounded=0;fontColor=#FFFFFF;" vertex="1" parent="RXooIyX6d2-tUcmmeUrm-79">
          <mxGeometry x="-20" y="5" width="60" height="30" as="geometry" />
        </mxCell>
        <mxCell id="RXooIyX6d2-tUcmmeUrm-80" value="&amp;nbsp; &amp;nbsp; &amp;nbsp; Frontend" style="swimlane;strokeColor=#FFFFFF;fontFamily=Helvetica;fontSize=11;fontColor=default;fillColor=none;dashed=1;dashPattern=8 8;opacity=20;rounded=1;arcSize=28;swimlaneLine=0;textOpacity=50;container=0;align=left;verticalAlign=middle;html=1;whiteSpace=wrap;movable=1;resizable=1;rotatable=1;deletable=1;editable=1;locked=0;connectable=1;" vertex="1" parent="1">
          <mxGeometry x="250" y="150" width="540" height="260" as="geometry">
            <mxRectangle x="210" y="325" width="90" height="30" as="alternateBounds" />
          </mxGeometry>
        </mxCell>
        <mxCell id="RXooIyX6d2-tUcmmeUrm-70" value="" style="shape=flexArrow;endArrow=classic;html=1;rounded=0;labelBackgroundColor=default;strokeColor=#23445D;strokeWidth=5;align=center;verticalAlign=middle;fontFamily=Helvetica;fontSize=11;fontColor=default;exitX=1;exitY=0.5;exitDx=0;exitDy=0;fillColor=#36688F;fillStyle=auto;gradientColor=none;" edge="1" parent="1" source="RXooIyX6d2-tUcmmeUrm-69" target="RXooIyX6d2-tUcmmeUrm-109">
          <mxGeometry width="50" height="50" relative="1" as="geometry">
            <mxPoint x="780" y="276.25" as="sourcePoint" />
            <mxPoint x="640" y="486.25" as="targetPoint" />
          </mxGeometry>
        </mxCell>
        <mxCell id="RXooIyX6d2-tUcmmeUrm-87" value="" style="shape=flexArrow;endArrow=classic;html=1;rounded=0;labelBackgroundColor=default;strokeColor=#23445D;strokeWidth=5;align=center;verticalAlign=middle;fontFamily=Helvetica;fontSize=11;fontColor=default;fillColor=#36688F;fillStyle=auto;gradientColor=none;" edge="1" parent="1" source="RXooIyX6d2-tUcmmeUrm-109" target="RXooIyX6d2-tUcmmeUrm-108">
          <mxGeometry width="50" height="50" relative="1" as="geometry">
            <mxPoint x="600" y="486.25" as="sourcePoint" />
            <mxPoint x="440" y="486.25" as="targetPoint" />
          </mxGeometry>
        </mxCell>
        <mxCell id="RXooIyX6d2-tUcmmeUrm-71" value="ASM&lt;br style=&quot;font-size: 14px;&quot;&gt;Builder" style="rounded=1;whiteSpace=wrap;html=1;arcSize=24;fillColor=#182E3E;strokeColor=#FFFFFF;shadow=0;comic=0;labelBackgroundColor=none;fontFamily=Verdana;fontSize=14;fontColor=#FFFFFF;align=center;fontStyle=1;opacity=80;" vertex="1" parent="1">
          <mxGeometry x="470" y="435" width="100" height="102.5" as="geometry" />
        </mxCell>
        <mxCell id="RXooIyX6d2-tUcmmeUrm-69" value="IR&lt;br style=&quot;font-size: 14px;&quot;&gt;Optimizer" style="rounded=1;whiteSpace=wrap;html=1;arcSize=24;fillColor=#182E3E;strokeColor=#FFFFFF;shadow=0;comic=0;labelBackgroundColor=none;fontFamily=Verdana;fontSize=14;fontColor=#FFFFFF;align=center;fontStyle=1;opacity=80;" vertex="1" parent="1">
          <mxGeometry x="670" y="435" width="100" height="102.5" as="geometry" />
        </mxCell>
        <mxCell id="RXooIyX6d2-tUcmmeUrm-90" value="" style="shape=flexArrow;endArrow=classic;html=1;rounded=0;labelBackgroundColor=default;strokeColor=#23445D;strokeWidth=5;align=center;verticalAlign=middle;fontFamily=Helvetica;fontSize=11;fontColor=default;exitX=0;exitY=0.5;exitDx=0;exitDy=0;fillColor=#36688F;fillStyle=auto;gradientColor=none;" edge="1" parent="1" source="RXooIyX6d2-tUcmmeUrm-89">
          <mxGeometry width="50" height="50" relative="1" as="geometry">
            <mxPoint x="780" y="496" as="sourcePoint" />
            <mxPoint x="400" y="486" as="targetPoint" />
          </mxGeometry>
        </mxCell>
        <mxCell id="RXooIyX6d2-tUcmmeUrm-89" value="ASM&lt;br style=&quot;font-size: 14px;&quot;&gt;Optimizer" style="rounded=1;whiteSpace=wrap;html=1;arcSize=24;fillColor=#182E3E;strokeColor=#FFFFFF;shadow=0;comic=0;labelBackgroundColor=none;fontFamily=Verdana;fontSize=14;fontColor=#FFFFFF;align=center;fontStyle=1;opacity=80;" vertex="1" parent="1">
          <mxGeometry x="270" y="435" width="100" height="102.5" as="geometry" />
        </mxCell>
        <mxCell id="382b91b5511bd0f7-6" value="Antlr4&lt;br style=&quot;font-size: 14px;&quot;&gt;Lexer &amp;amp; Parser" style="rounded=1;whiteSpace=wrap;html=1;arcSize=24;fillColor=#2D3840;strokeColor=#FFFFFF;shadow=0;comic=0;labelBackgroundColor=none;fontFamily=Verdana;fontSize=14;fontColor=#9FAFB3;align=center;opacity=80;fontStyle=1" parent="1" vertex="1">
          <mxGeometry x="270" y="188.75" width="100" height="102.5" as="geometry" />
        </mxCell>
        <mxCell id="RXooIyX6d2-tUcmmeUrm-32" value="" style="group" vertex="1" connectable="0" parent="1">
          <mxGeometry x="390" y="197.5" width="60" height="90" as="geometry" />
        </mxCell>
        <mxCell id="RXooIyX6d2-tUcmmeUrm-28" value="" style="ellipse;html=1;shape=startState;fillColor=#182E3E;strokeColor=#FFFFFF;rounded=1;shadow=0;comic=0;labelBackgroundColor=none;fontFamily=Verdana;fontSize=12;fontColor=#FFFFFF;align=center;direction=south;" vertex="1" parent="RXooIyX6d2-tUcmmeUrm-32">
          <mxGeometry x="10" y="22.5" width="40" height="40" as="geometry" />
        </mxCell>
        <mxCell id="RXooIyX6d2-tUcmmeUrm-31" value="Tree" style="text;html=1;strokeColor=none;fillColor=none;align=center;verticalAlign=middle;whiteSpace=wrap;rounded=0;fontColor=#5F99BA;" vertex="1" parent="RXooIyX6d2-tUcmmeUrm-32">
          <mxGeometry width="60" height="30" as="geometry" />
        </mxCell>
        <mxCell id="RXooIyX6d2-tUcmmeUrm-50" value="" style="group" vertex="1" connectable="0" parent="1">
          <mxGeometry x="590" y="197.5" width="60" height="90" as="geometry" />
        </mxCell>
        <mxCell id="RXooIyX6d2-tUcmmeUrm-51" value="AST" style="text;html=1;strokeColor=none;fillColor=none;align=center;verticalAlign=middle;whiteSpace=wrap;rounded=0;fontColor=#FFFFFF;fontStyle=1;fontSize=20;shadow=1;" vertex="1" parent="RXooIyX6d2-tUcmmeUrm-50">
          <mxGeometry y="60" width="60" height="30" as="geometry" />
        </mxCell>
        <mxCell id="RXooIyX6d2-tUcmmeUrm-52" value="" style="ellipse;html=1;shape=startState;fillColor=#448DB8;strokeColor=#FFFFFF;rounded=1;shadow=0;comic=0;labelBackgroundColor=none;fontFamily=Verdana;fontSize=12;fontColor=#FFFFFF;align=center;direction=south;" vertex="1" parent="RXooIyX6d2-tUcmmeUrm-50">
          <mxGeometry x="10" y="22.5" width="40" height="40" as="geometry" />
        </mxCell>
        <mxCell id="RXooIyX6d2-tUcmmeUrm-53" value="Tree" style="text;html=1;strokeColor=none;fillColor=none;align=center;verticalAlign=middle;whiteSpace=wrap;rounded=0;fontColor=#5F99BA;" vertex="1" parent="RXooIyX6d2-tUcmmeUrm-50">
          <mxGeometry width="60" height="30" as="geometry" />
        </mxCell>
        <mxCell id="RXooIyX6d2-tUcmmeUrm-54" value="" style="shape=flexArrow;endArrow=classic;html=1;rounded=0;labelBackgroundColor=default;strokeColor=#23445D;strokeWidth=5;align=center;verticalAlign=middle;fontFamily=Helvetica;fontSize=11;fontColor=default;fillColor=#36688F;fillStyle=auto;gradientColor=none;" edge="1" parent="1" source="RXooIyX6d2-tUcmmeUrm-28" target="RXooIyX6d2-tUcmmeUrm-52">
          <mxGeometry width="50" height="50" relative="1" as="geometry">
            <mxPoint x="440" y="240" as="sourcePoint" />
            <mxPoint x="410" y="250" as="targetPoint" />
          </mxGeometry>
        </mxCell>
        <mxCell id="RXooIyX6d2-tUcmmeUrm-10" value="AST&lt;br style=&quot;font-size: 14px;&quot;&gt;Builder" style="rounded=1;whiteSpace=wrap;html=1;arcSize=24;fillColor=#182E3E;strokeColor=#FFFFFF;shadow=0;comic=0;labelBackgroundColor=none;fontFamily=Verdana;fontSize=14;fontColor=#FFFFFF;align=center;fontStyle=1;opacity=80;" vertex="1" parent="1">
          <mxGeometry x="470" y="188.75" width="100" height="102.5" as="geometry" />
        </mxCell>
        <mxCell id="RXooIyX6d2-tUcmmeUrm-56" value="" style="shape=flexArrow;endArrow=classic;html=1;rounded=0;labelBackgroundColor=default;strokeColor=#23445D;strokeWidth=5;align=center;verticalAlign=middle;fontFamily=Helvetica;fontSize=11;fontColor=default;exitX=1;exitY=0.5;exitDx=0;exitDy=0;fillColor=#36688F;fillStyle=auto;gradientColor=none;" edge="1" parent="1" source="RXooIyX6d2-tUcmmeUrm-55" target="RXooIyX6d2-tUcmmeUrm-52">
          <mxGeometry width="50" height="50" relative="1" as="geometry">
            <mxPoint x="450" y="250" as="sourcePoint" />
            <mxPoint x="650" y="320" as="targetPoint" />
          </mxGeometry>
        </mxCell>
        <mxCell id="RXooIyX6d2-tUcmmeUrm-55" value="Semantic&lt;br style=&quot;font-size: 14px;&quot;&gt;Checker" style="rounded=1;whiteSpace=wrap;html=1;arcSize=24;fillColor=#182E3E;strokeColor=#FFFFFF;shadow=0;comic=0;labelBackgroundColor=none;fontFamily=Verdana;fontSize=14;fontColor=#FFFFFF;align=center;fontStyle=1;opacity=80;" vertex="1" parent="1">
          <mxGeometry x="670" y="188.75" width="100" height="102.5" as="geometry" />
        </mxCell>
        <mxCell id="RXooIyX6d2-tUcmmeUrm-49" value="" style="endArrow=classic;html=1;rounded=0;labelBackgroundColor=default;strokeColor=#23445D;strokeWidth=3;align=center;verticalAlign=middle;fontFamily=Helvetica;fontSize=11;fontColor=default;" edge="1" parent="1" source="RXooIyX6d2-tUcmmeUrm-44" target="RXooIyX6d2-tUcmmeUrm-10">
          <mxGeometry width="50" height="50" relative="1" as="geometry">
            <mxPoint x="520" y="310" as="sourcePoint" />
            <mxPoint x="480" y="291.25" as="targetPoint" />
            <Array as="points" />
          </mxGeometry>
        </mxCell>
        <mxCell id="RXooIyX6d2-tUcmmeUrm-58" value="IR&lt;br style=&quot;font-size: 14px;&quot;&gt;Builder" style="rounded=1;whiteSpace=wrap;html=1;arcSize=24;fillColor=#182E3E;strokeColor=#FFFFFF;shadow=0;comic=0;labelBackgroundColor=none;fontFamily=Verdana;fontSize=14;fontColor=#FFFFFF;align=center;fontStyle=1;opacity=80;" vertex="1" parent="1">
          <mxGeometry x="570" y="300" width="100" height="100" as="geometry" />
        </mxCell>
        <mxCell id="RXooIyX6d2-tUcmmeUrm-43" value="Built-in&lt;br&gt;Type &amp;amp; Function" style="text;html=1;strokeColor=none;fillColor=none;align=center;verticalAlign=middle;whiteSpace=wrap;rounded=0;fontColor=#9FAFB3;" vertex="1" parent="1">
          <mxGeometry x="406" y="313" width="100" height="30" as="geometry" />
        </mxCell>
        <mxCell id="RXooIyX6d2-tUcmmeUrm-29" value="Souce&lt;br style=&quot;font-size: 18px;&quot;&gt;Code" style="text;html=1;strokeColor=none;fillColor=none;align=center;verticalAlign=middle;whiteSpace=wrap;rounded=0;fontColor=#FFFFFF;fontStyle=1;fontSize=18;" vertex="1" parent="1">
          <mxGeometry x="118" y="225" width="60" height="30" as="geometry" />
        </mxCell>
        <mxCell id="RXooIyX6d2-tUcmmeUrm-20" value="Parse&lt;br&gt;Tree" style="text;html=1;strokeColor=none;fillColor=none;align=center;verticalAlign=middle;whiteSpace=wrap;rounded=0;fontColor=#FFFFFF;fontStyle=1" vertex="1" parent="1">
          <mxGeometry x="390" y="262.5" width="60" height="30" as="geometry" />
        </mxCell>
        <mxCell id="RXooIyX6d2-tUcmmeUrm-44" value="" style="ellipse;html=1;shape=startState;fillColor=#182E3E;strokeColor=#FFFFFF;rounded=1;shadow=0;comic=0;labelBackgroundColor=none;fontFamily=Verdana;fontSize=12;fontColor=#FFFFFF;align=center;direction=south;" vertex="1" parent="1">
          <mxGeometry x="500" y="310" width="40" height="40" as="geometry" />
        </mxCell>
        <mxCell id="RXooIyX6d2-tUcmmeUrm-95" value="Assembly&lt;br&gt;Source Code&lt;br&gt;File" style="text;html=1;strokeColor=none;fillColor=none;align=center;verticalAlign=middle;whiteSpace=wrap;rounded=0;fontColor=#FFFFFF;" vertex="1" parent="1">
          <mxGeometry x="97" y="542.5" width="100" height="30" as="geometry" />
        </mxCell>
        <mxCell id="RXooIyX6d2-tUcmmeUrm-102" value="&lt;b&gt;.ll&lt;/b&gt;&amp;nbsp;file&lt;br&gt;String" style="text;html=1;strokeColor=none;fillColor=none;align=center;verticalAlign=middle;whiteSpace=wrap;rounded=0;fontColor=#5F99BA;" vertex="1" parent="1">
          <mxGeometry x="178" y="634" width="60" height="30" as="geometry" />
        </mxCell>
        <mxCell id="RXooIyX6d2-tUcmmeUrm-103" value="LLVM IR&lt;br&gt;Output&amp;nbsp;File" style="text;html=1;strokeColor=none;fillColor=none;align=center;verticalAlign=middle;whiteSpace=wrap;rounded=0;fontColor=#FFFFFF;" vertex="1" parent="1">
          <mxGeometry x="99" y="595" width="100" height="30" as="geometry" />
        </mxCell>
        <mxCell id="RXooIyX6d2-tUcmmeUrm-106" value="" style="ellipse;html=1;shape=endState;fillColor=#182E3E;strokeColor=#FFFFFF;rounded=1;shadow=0;comic=0;labelBackgroundColor=none;fontFamily=Verdana;fontSize=12;fontColor=#FFFFFF;align=center;" vertex="1" parent="1">
          <mxGeometry x="188" y="590" width="40" height="40" as="geometry" />
        </mxCell>
        <mxCell id="RXooIyX6d2-tUcmmeUrm-98" value="&lt;b&gt;.s&lt;/b&gt; file&lt;br&gt;String" style="text;html=1;strokeColor=none;fillColor=none;align=center;verticalAlign=middle;whiteSpace=wrap;rounded=0;fontColor=#5F99BA;" vertex="1" parent="1">
          <mxGeometry x="178" y="504.5" width="60" height="30" as="geometry" />
        </mxCell>
        <mxCell id="RXooIyX6d2-tUcmmeUrm-105" value="" style="ellipse;html=1;shape=endState;fillColor=#448DB8;strokeColor=#FFFFFF;rounded=1;shadow=0;comic=0;labelBackgroundColor=none;fontFamily=Verdana;fontSize=12;fontColor=#FFFFFF;align=center;" vertex="1" parent="1">
          <mxGeometry x="188" y="537.5" width="40" height="40" as="geometry" />
        </mxCell>
        <mxCell id="RXooIyX6d2-tUcmmeUrm-85" value="ASM" style="text;html=1;strokeColor=none;fillColor=none;align=center;verticalAlign=middle;whiteSpace=wrap;rounded=0;fontColor=#FFFFFF;fontStyle=1;fontSize=20;shadow=1;" vertex="1" parent="1">
          <mxGeometry x="380" y="506.25" width="80" height="30" as="geometry" />
        </mxCell>
        <mxCell id="RXooIyX6d2-tUcmmeUrm-86" value="Linked List" style="text;html=1;strokeColor=none;fillColor=none;align=center;verticalAlign=middle;whiteSpace=wrap;rounded=0;fontColor=#5F99BA;" vertex="1" parent="1">
          <mxGeometry x="380" y="441.25" width="80" height="30" as="geometry" />
        </mxCell>
        <mxCell id="RXooIyX6d2-tUcmmeUrm-61" value="LLVM IR" style="text;html=1;strokeColor=none;fillColor=none;align=center;verticalAlign=middle;whiteSpace=wrap;rounded=0;fontColor=#FFFFFF;fontStyle=1;fontSize=20;shadow=1;" vertex="1" parent="1">
          <mxGeometry x="570" y="506.25" width="100" height="30" as="geometry" />
        </mxCell>
        <mxCell id="RXooIyX6d2-tUcmmeUrm-63" value="Linked List" style="text;html=1;strokeColor=none;fillColor=none;align=center;verticalAlign=middle;whiteSpace=wrap;rounded=0;fontColor=#5F99BA;" vertex="1" parent="1">
          <mxGeometry x="580" y="441.25" width="80" height="28.75" as="geometry" />
        </mxCell>
        <mxCell id="RXooIyX6d2-tUcmmeUrm-108" value="" style="ellipse;html=1;shape=startState;fillColor=#448DB8;strokeColor=#FFFFFF;rounded=1;shadow=0;comic=0;labelBackgroundColor=none;fontFamily=Verdana;fontSize=12;fontColor=#FFFFFF;align=center;direction=south;" vertex="1" parent="1">
          <mxGeometry x="400" y="466.25" width="40" height="40" as="geometry" />
        </mxCell>
        <mxCell id="RXooIyX6d2-tUcmmeUrm-109" value="" style="ellipse;html=1;shape=startState;fillColor=#448DB8;strokeColor=#FFFFFF;rounded=1;shadow=0;comic=0;labelBackgroundColor=none;fontFamily=Verdana;fontSize=12;fontColor=#FFFFFF;align=center;direction=south;" vertex="1" parent="1">
          <mxGeometry x="600" y="466.25" width="40" height="40" as="geometry" />
        </mxCell>
      </root>
    </mxGraphModel>
  </diagram>
</mxfile>
